<?xml version="1.0" ?><svg data-name="Layer 1" height="24" id="Layer_1" viewBox="0 0 24 24" width="24" xmlns="http://www.w3.org/2000/svg"><title/><path d="M12.17676,7.5918,10.8584,6.877A3.13211,3.13211,0,0,0,10,3.11133L11.00684,2A4.62271,4.62271,0,0,1,12.17676,7.5918Z"/><path d="M17.125,6h-.25a3.6354,3.6354,0,0,0-2.38757.9649A3.69223,3.69223,0,0,0,12.07574,6h-.15149a3.69223,3.69223,0,0,0-2.41168.9649A3.6354,3.6354,0,0,0,7.125,6h-.25C4.18262,6,2,9.35785,2,13.5S4.18262,21,6.875,21h.25a3.6354,3.6354,0,0,0,2.38757-.9649A3.69223,3.69223,0,0,0,11.92426,21h.15149a3.69223,3.69223,0,0,0,2.41168-.9649A3.6354,3.6354,0,0,0,16.875,21h.25C19.81738,21,22,17.64215,22,13.5S19.81738,6,17.125,6ZM12,12l1.5,2h-3ZM6,9l4,3H5Zm9.11084,8.82764L12,16.79053,8.88916,17.82764,5.584,15.624l.832-1.248,2.69482,1.79639L12,15.20947l2.88916.96289L17.584,14.376l.832,1.248ZM14,12l4-3,1,3Z"/></svg>