<?xml version="1.0" ?><svg data-name="Layer 1" height="24" id="Layer_1" viewBox="0 0 24 24" width="24" xmlns="http://www.w3.org/2000/svg"><title/><path d="M12,2A7,7,0,0,0,5,9V22c.72632.25037,1.56506-1.5,2.33331-1.5S8.89838,22,9.66669,22,11.23169,20.5,12,20.5,13.56506,22,14.33331,22s1.56506-1.5,2.33337-1.5S18.27368,22.25037,19,22V9A7,7,0,0,0,12,2ZM7.71661,10.15393a1.67913,1.67913,0,0,1-.324-2.35242c.56012-.73907,3.23657,1.28925,2.67645,2.02832A1.67919,1.67919,0,0,1,7.71661,10.15393ZM9,15a3,3,0,0,1,6,0Zm7.335-4.84607a1.67911,1.67911,0,0,1-2.35236-.3241c-.56012-.73907,2.11633-2.7674,2.67645-2.02832A1.67919,1.67919,0,0,1,16.335,10.15393Z"/><path d="M16.59207,11.07583H20.8776a1.5,1.5,0,0,1,1.5,1.5v0a1.5,1.5,0,0,1-1.5,1.5H16.59207a0,0,0,0,1,0,0v-3a0,0,0,0,1,0,0Z" transform="translate(-3.18548 17.46123) rotate(-45)"/><path d="M1.59207,11.07583H5.8776a1.5,1.5,0,0,1,1.5,1.5v0a1.5,1.5,0,0,1-1.5,1.5H1.59207a0,0,0,0,1,0,0v-3a0,0,0,0,1,0,0Z" transform="translate(-1.23636 24.63953) rotate(-135)"/></svg>