<?xml version="1.0" ?><svg data-name="Layer 1" height="24" id="Layer_1" viewBox="0 0 24 24" width="24" xmlns="http://www.w3.org/2000/svg"><title/><path d="M16.17688,11.4a1.09208,1.09208,0,0,1,.32312.06525V5H15v6.4Z"/><path d="M16.44928,13.61267,15,13.975V21h1.5V13.59045C16.482,13.59595,16.46771,13.608,16.44928,13.61267Z"/><path d="M12,7.18372V6A3,3,0,0,0,6,6V7.18372A2.99122,2.99122,0,0,0,4,10v1.00043l.8,7.99927L2,21h8.285a3,3,0,0,0,2.98511-2.70148L14,11.00043V10A2.99122,2.99122,0,0,0,12,7.18372ZM10.5,6.5a1.5,1.5,0,0,1-3,0V6h3Z"/><path d="M15,6V3a9.0783,9.0783,0,0,1,7,3Z"/><path d="M16.14929,12.21268,13,13V10h2.8769A1.1231,1.1231,0,0,1,17,11.1231h0A1.1231,1.1231,0,0,1,16.14929,12.21268Z"/></svg>